<svg xmlns="http://www.w3.org/2000/svg" aria-hidden="true" style="position:absolute;width:0;height:0;overflow:hidden">
  <defs>
    <symbol id="icon-antenna-1" viewBox="0 0 32 32">
      <path fill="#2e2f42" d="m30.773 22.098-8.443-8.505.937-4.615c.242.094.499.144.758.146h.006a2.159 2.159 0 1 0-2.008-1.435l-4.96.605L8.972.161a.534.534 0 0 0-.377-.16.532.532 0 0 0-.373.155L6.709 1.66a.534.534 0 0 0 0 .754l.814.826a14.943 14.943 0 0 0 2.519 17.663.513.513 0 0 0 .146.098c-.034.18-.051.364-.052.547v6.187h-6.4a2.67 2.67 0 0 0-2.667 2.667v1.067c0 .295.239.533.533.533h24.533a.533.533 0 0 0 .533-.533v-1.067a2.67 2.67 0 0 0-2.667-2.667h-6.4v-2.742a15.09 15.09 0 0 0 3.049.32 14.854 14.854 0 0 0 7.04-1.783l.818.823a.534.534 0 0 0 .377.16.532.532 0 0 0 .373-.155l1.513-1.504a.534.534 0 0 0 0-.754zM23.28 6.233a1.067 1.067 0 1 1 .753 1.822h-.003a1.067 1.067 0 0 1-.747-1.823h-.002zm-1.256 3.505-.598 2.946-1.175-1.182 1.774-1.763zm-.605-.902-1.92 1.909-1.485-1.493 3.405-.415zM24.004 28.8a1.6 1.6 0 0 1 1.6 1.6v.533H2.137V30.4a1.6 1.6 0 0 1 1.6-1.6h20.267zm-7.467-2.133v1.067h-5.333v-1.067h5.333zM11.204 25.6v-4.053c0-1.294 1.196-2.347 2.667-2.347s2.667 1.053 2.667 2.347V25.6h-5.333zm6.4-1.696v-2.357c0-1.882-1.675-3.413-3.733-3.413a3.8 3.8 0 0 0-3.281 1.786A13.87 13.87 0 0 1 8.311 4.033l18.602 18.708a13.818 13.818 0 0 1-9.309 1.163zm11.289-.684L7.836 2.039l.755-.752 7.935 7.98c.004 0 .006.007.01.01l13.115 13.191-.757.752z" style="fill:var(--color1, #2e2f42)"/>
      <path fill="#4d5ae5" d="M13.876 20.267h-.005a1.6 1.6 0 1 0-.004 3.2h.005a1.6 1.6 0 1 0 .004-3.2zm.373 1.978a.534.534 0 0 1-.752-.756.534.534 0 0 1 .373-.155.534.534 0 0 1 .374.911h.005z" style="fill:var(--color2, #4d5ae5)"/>
    </symbol>
    <symbol id="icon-astronaut-1" viewBox="0 0 32 32">
      <path fill="#4d5ae5" d="M31.974 4.524a.534.534 0 0 0-.43-.363l-1.91-.278-.855-1.731c-.179-.365-.777-.365-.956 0l-.855 1.731-1.91.278a.535.535 0 0 0-.296.91l1.383 1.348-.326 1.903c-.034.2.048.402.212.522a.53.53 0 0 0 .562.04l1.709-.899 1.709.899a.536.536 0 0 0 .775-.563l-.326-1.903 1.383-1.348a.536.536 0 0 0 .135-.547zm-2.463 1.327a.534.534 0 0 0-.153.472l.191 1.114-1-.526a.533.533 0 0 0-.498 0l-1.001.526.191-1.114a.534.534 0 0 0-.153-.472l-.81-.789 1.119-.163a.532.532 0 0 0 .402-.292l.5-1.013.5 1.013a.535.535 0 0 0 .402.292l1.119.163-.809.789zm-3.378 14.671h-1.067v1.067h1.067v-1.067zm0 2.134h-1.067v1.067h1.067v-1.067zm1.067-1.067h-1.067v1.067H27.2v-1.067zm-2.133 0H24v1.067h1.067v-1.067zm-2.667 4.8h-1.067v1.067H22.4v-1.067zm0 2.133h-1.067v1.067H22.4v-1.067zm1.067-1.066H22.4v1.067h1.067v-1.067zm-2.134 0h-1.067v1.067h1.067v-1.067zM16 24.256h-1.067v1.067H16v-1.067zm0 2.133h-1.067v1.067H16v-1.067zm1.067-1.067H16v1.067h1.067v-1.067zm-2.134 0h-1.067v1.067h1.067v-1.067zm-9.066-19.2H4.8v1.067h1.067V6.122zm0 2.133H4.8v1.067h1.067V8.255z" style="fill:var(--color2, #4d5ae5)"/>
      <path fill="#4d5ae5" d="M6.933 7.189H5.866v1.067h1.067V7.189zm-2.133 0H3.733v1.067H4.8V7.189z" style="fill:var(--color2, #4d5ae5)"/>
      <path fill="#2e2f42" d="M24.715 14.159a1.775 1.775 0 0 0-1.188-.705 1.778 1.778 0 0 0-1.34.352l-1.252.96-1.898 1.417-1.358-.541c2.421-1.086 4.114-3.508 4.114-6.32 0-3.823-3.123-6.933-6.961-6.933s-6.961 3.11-6.961 6.933a6.86 6.86 0 0 0 1.12 3.758l-2.764-.024h-.005c-.009 0-.015.004-.023.005a.515.515 0 0 0-.155.031l-.038.013c-.006.003-.013.003-.019.006l-3.233 1.596-.001.001-1.893.911a.397.397 0 0 0-.063.035 1.779 1.779 0 0 0-.598 2.295c.22.429.595.745 1.056.889a1.776 1.776 0 0 0 1.378-.128l1.388-.738 2.264-1.169 1.357-.008L2.2 22.211l-.002.001-1.339 1.333c-.316.315-.49.732-.49 1.178s.174.863.49 1.179c.325.323.752.485 1.179.485s.854-.162 1.18-.485l1.314-1.309 1.741-1.3.901.897-1.762 1.754-.002.001-1.339 1.333c-.316.315-.49.732-.49 1.178s.174.863.49 1.179c.325.323.753.485 1.18.485s.855-.162 1.18-.485l3.482-3.467.001-.002 1.01-1-.004-.004c.006-.006.015-.009.022-.015l5.166-5.658 3.471.494a.52.52 0 0 0 .262-.033c.018-.006.033-.015.05-.023.019-.01.039-.015.058-.027l3.213-2.133c.012-.008.018-.021.029-.029.013-.01.029-.014.041-.026l1.271-1.191c.662-.62.753-1.635.212-2.362zM2.13 17.77a.714.714 0 0 1-.558.052.717.717 0 0 1-.213-1.26l1.314-.632.449 1.313-.992.527zm3.498-1.828-1.548.8-.439-1.283 2.027-1.001-.04 1.484zm15.099-6.62a5.79 5.79 0 0 1-.599 2.559l-4.181-1.899a1.863 1.863 0 0 0-.788-1.388l1.464-4.86c2.378.756 4.105 2.974 4.105 5.588zm-11.789 0c0-3.235 2.644-5.867 5.894-5.867.253 0 .5.021.745.052l-1.432 4.754c-.019-.001-.037-.006-.057-.006-1.033 0-1.873.837-1.873 1.867s.84 1.867 1.873 1.867c.694 0 1.294-.383 1.618-.945l3.862 1.755a5.894 5.894 0 0 1-4.737 2.39c-3.25 0-5.894-2.632-5.894-5.867zm5.956.8c0 .441-.362.8-.806.8s-.806-.359-.806-.8c0-.441.362-.8.806-.8s.806.359.806.8zM2.465 25.146a.608.608 0 0 1-.854.001.592.592 0 0 1 0-.844l.962-.958.851.848-.959.955zm3.214 3.734a.608.608 0 0 1-.855.001.592.592 0 0 1 0-.844l.963-.959.852.848-.96.955zm3.481-3.469-.002.001-1.765 1.76-.852-.848 1.763-1.755.002-.001c.04-.04.065-.088.09-.135.007-.014.02-.026.026-.04.017-.041.019-.085.026-.129.003-.025.014-.047.014-.073 0-.036-.013-.07-.02-.106-.006-.032-.006-.065-.019-.095a.55.55 0 0 0-.091-.138c-.01-.012-.014-.027-.025-.038h-.001l-.001-.002-1.607-1.6c-.017-.017-.039-.024-.058-.038a.507.507 0 0 0-.087-.058.515.515 0 0 0-.093-.033.507.507 0 0 0-.103-.02.5.5 0 0 0-.095.005.53.53 0 0 0-.104.02.477.477 0 0 0-.094.045c-.02.011-.042.015-.061.029L4.23 23.486l-.901-.897 2.399-2.386 4.361 4.289-.928.919zm6.819-7.017c-.015-.002-.03.004-.045.003a.556.556 0 0 0-.3.075.492.492 0 0 0-.083.061c-.013.011-.028.017-.04.029l-4.698 5.146-4.328-4.257 2.833-2.818a.534.534 0 0 0-.379-.911v-.001l-2.219.013.028-1.607 3.104.027a6.947 6.947 0 0 0 4.981 2.101c.437 0 .864-.045 1.279-.123.04.032.079.065.13.085l2.41.96.152.758.178.885-3.003-.427zm4.041.178-.313-1.558 1.446-1.08.947 1.257-2.08 1.381zm3.754-2.831-.838.785-.931-1.236.831-.637a.735.735 0 0 1 .543-.143.718.718 0 0 1 .48.284.713.713 0 0 1-.085.947z" style="fill:var(--color1, #2e2f42)"/>
      <path fill="#2e2f42" d="m13.602 18.544-2.143-2.133a.534.534 0 0 0-.753 0l-2.142 2.133a.537.537 0 0 0 0 .756l2.142 2.133a.536.536 0 0 0 .753 0l2.143-2.133a.535.535 0 0 0 0-.756zm-2.519 1.759-1.387-1.381 1.387-1.381 1.387 1.381-1.387 1.381zm6.081-15.232-.258 1.036c.071.018 1.738.452 1.738 2.149h1.067c0-2.017-1.666-2.965-2.547-3.185zm2.547 4.251h-1.067v1.067h1.067V9.322z" style="fill:var(--color1, #2e2f42)"/>
    </symbol>
    <symbol id="icon-clock-1" viewBox="0 0 32 32">
      <path fill="#2e2f42" d="M31.297 15.301C31.295 6.849 24.442-.002 15.989 0S.686 6.855.688 15.308a15.304 15.304 0 0 0 10.649 14.576.662.662 0 0 0 .529-.065.637.637 0 0 0 .283-.356l3.865-12.25a1.912 1.912 0 1 0-.84-3.635l-5.106-5.107a.637.637 0 0 0-.902.902l5.103 5.109a1.876 1.876 0 0 0 .536 2.309l-3.683 11.673C3.844 25.783.118 17.71 2.799 10.432S13.553-.572 20.831 2.109c7.278 2.681 11.004 10.754 8.323 18.032a14.042 14.042 0 0 1-7.462 7.973l-.398-1.874a.637.637 0 0 0-1.049-.344l-3.837 3.426a.637.637 0 0 0 .231 1.084l4.899 1.564a.638.638 0 0 0 .819-.74l-.391-1.839a15.255 15.255 0 0 0 9.329-14.089zm-15.305-.637a.638.638 0 1 1 0 1.277.638.638 0 0 1 0-1.277zm2.101 14.864 2.184-1.948.603 2.84-2.787-.892z" style="fill:var(--color1, #2e2f42)"/>
      <path fill="#4d5ae5" d="M15.354 3.185V4.46a.638.638 0 1 0 1.276 0V3.185a.638.638 0 0 0-1.276 0zM3.876 14.664a.638.638 0 0 0 0 1.276h1.275a.638.638 0 1 0 0-1.276H3.876zm24.232 1.275a.638.638 0 1 0 0-1.276h-1.275a.638.638 0 0 0 0 1.276h1.275z" style="fill:var(--color2, #4d5ae5)"/>
    </symbol>
    <symbol id="icon-diagram-1" viewBox="0 0 32 32">
      <path fill="#4d5ae5" d="M14.925 14.965h1.066v4.798h-1.066v-4.797zm4.265 2.132h1.066v2.665H19.19v-2.665zm-8.529 1.599h1.066v1.066h-1.066v-1.066zm-3.198-.533h1.066v1.599H7.463v-1.599z" style="fill:var(--color2, #4d5ae5)"/>
      <path fill="#2e2f42" d="M1.599 28.291h25.587a1.6 1.6 0 0 0 1.599-1.599V24.56a1.6 1.6 0 0 0-1.599-1.599h-.533V9.668L29.681 6.8a1.608 1.608 0 1 0-.746-.763L26.654 8.2V6.97a1.6 1.6 0 0 0-1.599-1.599H3.733A1.6 1.6 0 0 0 2.134 6.97v15.992h-.533a1.6 1.6 0 0 0-1.599 1.599v2.132a1.6 1.6 0 0 0 1.599 1.599zM30.384 4.837a.533.533 0 1 1 0 1.067.533.533 0 0 1 0-1.067zM3.198 6.969c0-.294.239-.533.533-.533h21.322c.294 0 .533.239.533.533v2.239l-1.066 1.013V8.035a.533.533 0 0 0-.533-.533H4.797a.533.533 0 0 0-.533.533v13.326c0 .294.239.533.533.533h19.19a.533.533 0 0 0 .533-.533v-9.674l1.066-1.01v12.284H3.198V6.969zm4.798 6.93a1.598 1.598 0 1 0 1.107 2.749l1.853.93a.532.532 0 0 0 .636-.123l3.939-4.431 3.872 2.901a.533.533 0 0 0 .686-.039l3.365-3.188v8.131H5.33V8.569h18.124v2.66l-3.771 3.572-3.904-2.927a.533.533 0 0 0-.718.072l-3.993 4.493-1.493-.746c.011-.064.018-.129.02-.193a1.6 1.6 0 0 0-1.599-1.599zm.533 1.599a.533.533 0 1 1-1.067 0 .533.533 0 0 1 1.067 0zm3.198 8.529h5.331v.533a.533.533 0 0 1-.533.533h-4.264a.533.533 0 0 1-.533-.533v-.533zm-10.661.533c0-.294.239-.533.533-.533h9.062v.533a1.6 1.6 0 0 0 1.599 1.599h4.264a1.6 1.6 0 0 0 1.599-1.599v-.533h9.062c.294 0 .533.239.533.533v2.132a.533.533 0 0 1-.533.533H1.598a.533.533 0 0 1-.533-.533V24.56z" style="fill:var(--color1, #2e2f42)"/>
    </symbol>
    <symbol id="icon-facebook-1" viewBox="0 0 32 32">
      <path fill="#f4f4fd" d="M21.329 5.313h2.921V.225C23.746.156 22.013 0 19.994 0c-4.212 0-7.097 2.649-7.097 7.519V12H8.249v5.688h4.648V32h5.699V17.689h4.46l.708-5.688h-5.169V8.082c.001-1.644.444-2.769 2.735-2.769z" style="fill:var(--color3, #f4f4fd)"/>
    </symbol>
    <symbol id="icon-instagram-2" viewBox="0 0 32 32">
      <path fill="#f4f4fd" d="M31.969 9.408c-.075-1.7-.35-2.869-.744-3.882a7.803 7.803 0 0 0-1.85-2.838A7.867 7.867 0 0 0 26.543.844C25.524.45 24.361.175 22.661.1 20.948.019 20.404 0 16.06 0s-4.888.019-6.595.094c-1.7.075-2.869.35-3.882.744a7.803 7.803 0 0 0-2.838 1.85A7.867 7.867 0 0 0 .901 5.52C.507 6.539.232 7.702.157 9.402c-.081 1.713-.1 2.257-.1 6.601s.019 4.888.094 6.595c.075 1.7.35 2.869.744 3.882a7.895 7.895 0 0 0 1.85 2.838 7.867 7.867 0 0 0 2.832 1.844c1.019.394 2.182.669 3.882.744 1.706.075 2.25.094 6.595.094s4.888-.018 6.595-.094c1.7-.075 2.869-.35 3.882-.744a8.181 8.181 0 0 0 4.682-4.682c.394-1.019.669-2.182.744-3.882.075-1.707.094-2.251.094-6.595s-.006-4.888-.081-6.595zm-2.882 13.065c-.069 1.563-.331 2.407-.55 2.969a5.307 5.307 0 0 1-3.038 3.038c-.563.219-1.413.481-2.969.55-1.688.075-2.194.094-6.464.094s-4.782-.018-6.464-.094c-1.563-.069-2.407-.331-2.969-.55a4.926 4.926 0 0 1-1.838-1.194 4.974 4.974 0 0 1-1.194-1.838c-.219-.563-.481-1.413-.55-2.969-.075-1.688-.094-2.194-.094-6.464s.019-4.782.094-6.464c.069-1.563.331-2.407.55-2.969a4.868 4.868 0 0 1 1.2-1.838A4.974 4.974 0 0 1 6.639 3.55c.563-.219 1.413-.481 2.969-.55 1.688-.075 2.194-.094 6.464-.094 4.276 0 4.782.019 6.464.094 1.563.069 2.407.331 2.969.55a4.914 4.914 0 0 1 1.838 1.194 4.974 4.974 0 0 1 1.194 1.838c.219.563.481 1.413.55 2.969.075 1.688.094 2.194.094 6.464s-.019 4.77-.094 6.457z" style="fill:var(--color3, #f4f4fd)"/>
      <path fill="#f4f4fd" d="M16.059 7.782c-4.538 0-8.22 3.682-8.22 8.22s3.682 8.22 8.22 8.22 8.22-3.682 8.22-8.22-3.682-8.22-8.22-8.22zm0 13.553a5.333 5.333 0 0 1 0-10.664 5.333 5.333 0 0 1 0 10.664zM26.524 7.457a1.919 1.919 0 1 1-3.838 0 1.919 1.919 0 0 1 3.838 0z" style="fill:var(--color3, #f4f4fd)"/>
    </symbol>
    <symbol id="icon-linkedin-1" viewBox="0 0 32 32">
      <path fill="#f4f4fd" d="M31.992 32v-.001H32V20.263c0-5.741-1.236-10.164-7.948-10.164-3.227 0-5.392 1.771-6.276 3.449h-.093v-2.913h-6.364v21.364h6.627V21.42c0-2.785.528-5.479 3.977-5.479 3.399 0 3.449 3.179 3.449 5.657v10.401h6.62zM.528 10.636h6.635V32H.528V10.636zM3.843 0C1.722 0 0 1.721 0 3.843s1.721 3.879 3.843 3.879c2.121 0 3.843-1.757 3.843-3.879A3.846 3.846 0 0 0 3.843 0z" style="fill:var(--color3, #f4f4fd)"/>
    </symbol>
    <symbol id="icon-Logo-1" viewBox="0 0 59 32">
      <path  d="m21.714 4 4.004 3.815-7.433-.004v18.51h19.429v-7.077l4 3.811V4.001h-20zm15.824 14.796L26.184 7.979h11.354v10.817zm-3.525 4.817H21.36V11.164h.894V22.77h11.759v.843zm-10.13 6.136-.472-.97h-.389l.684 1.284v.748h.353v-.748l.684-1.284h-.388l-.472.97zm1.739-.969h.084l.767 2.031h-.368l-.164-.476h-.786l-.164.476h-.367l.765-2.031h.234zm-.373 1.278h.595l-.298-.862-.297.862zm2.455-.337-.044-.057c-.052-.069-.093-.135-.121-.2s-.043-.132-.043-.201c0-.106.022-.197.066-.273s.106-.135.186-.176a.593.593 0 0 1 .28-.063c.103 0 .192.021.266.063a.44.44 0 0 1 .103.707.963.963 0 0 1-.142.124l-.141.103.402.475a.826.826 0 0 0 .088-.379h.29c0 .099-.01.192-.029.28a.878.878 0 0 1-.149.335l.298.351h-.389l-.118-.139a.796.796 0 0 1-.208.114.938.938 0 0 1-.315.053c-.135 0-.252-.025-.35-.074s-.175-.117-.229-.204a.56.56 0 0 1-.08-.297c0-.083.017-.155.052-.218s.081-.122.141-.176c.055-.05.118-.1.188-.15zm.167.204-.042.031a.529.529 0 0 0-.11.116.322.322 0 0 0-.057.181c0 .059.013.113.038.162s.064.087.113.116a.37.37 0 0 0 .183.042.514.514 0 0 0 .328-.116l-.452-.532zm.08-.371.125-.084c.059-.039.1-.077.126-.114s.038-.086.038-.142c0-.048-.019-.093-.056-.134s-.09-.061-.158-.061a.204.204 0 0 0-.194.121.284.284 0 0 0-.024.119c0 .042.011.085.032.13s.051.09.088.138l.023.029zm3.554.596h-.349c-.01.088-.032.163-.064.225s-.079.106-.141.138a.522.522 0 0 1-.241.047c-.082 0-.152-.016-.211-.049s-.107-.079-.145-.138c-.037-.059-.065-.131-.084-.213s-.026-.177-.026-.279v-.172c0-.108.01-.204.029-.287s.051-.156.091-.213c.04-.058.09-.101.149-.131s.129-.045.209-.045c.098 0 .177.017.237.05s.106.08.137.142a.628.628 0 0 1 .061.225h.349c-.014-.136-.052-.256-.114-.361s-.148-.187-.259-.247a.857.857 0 0 0-.41-.089c-.127 0-.242.022-.345.067s-.188.109-.261.194c-.073.084-.128.185-.167.303s-.057.25-.057.396v.169c0 .146.019.278.056.396s.093.219.165.303c.072.083.158.147.258.192s.213.067.339.067c.164 0 .303-.03.417-.089s.203-.141.266-.244a.82.82 0 0 0 .112-.356zm1.938-.299v-.112c0-.153-.02-.291-.061-.412s-.097-.226-.172-.311c-.074-.087-.163-.152-.266-.197s-.218-.068-.343-.068c-.125 0-.239.023-.342.068s-.191.11-.266.197c-.074.086-.132.189-.173.311s-.061.258-.061.412v.112c0 .154.02.291.061.413s.1.226.176.311a.767.767 0 0 0 .608.264c.126 0 .24-.022.343-.067s.192-.111.265-.197c.074-.086.132-.189.172-.311s.06-.259.06-.413zm-.351-.114v.114c0 .113-.011.214-.033.301s-.053.161-.095.222c-.042.059-.093.105-.153.135s-.13.045-.208.045c-.077 0-.146-.015-.206-.045s-.113-.076-.156-.135c-.043-.06-.075-.134-.098-.222s-.033-.188-.033-.301v-.114c0-.113.011-.213.033-.3s.054-.16.096-.219a.421.421 0 0 1 .361-.18c.077 0 .147.015.208.046.061.03.113.074.155.134s.075.132.096.219c.022.087.033.186.033.3z" style="fill:var(--color4, #8e8f99)"/>
    </symbol>
    <symbol id="icon-Logo-2" viewBox="0 0 59 32">
      <path  d="M28.636 3.391h-.078c-.12-.007-.24-.01-.36-.013h-.26c-.227 0-.458.006-.688.017a.451.451 0 0 0-.052 0 16.148 16.148 0 0 0-6.009 1.533l-.247.119v12.652l.578-.196a22.494 22.494 0 0 1 1.607-.477 19.624 19.624 0 0 1 4.626-.615v1.662c-.207.002-.408.007-.609.017h-.048a18.54 18.54 0 0 0-3.559.546c-1.477.37-2.901.925-4.24 1.652V4.061a16.979 16.979 0 0 1 4.448-1.809 17.043 17.043 0 0 1 4.192-.541h.244c.292.007.577.02.844.041.705.049 1.404.161 2.089.333v1.636a12.928 12.928 0 0 0-2.024-.305l-.041-.004c-.141-.012-.282-.024-.414-.024zm2.88 1.673c.363.028.739.041 1.119.041a17.95 17.95 0 0 0 4.407-.565 18.14 18.14 0 0 0 4.238-1.654v15.938a17.068 17.068 0 0 1-4.449 1.809c-1.37.352-2.778.533-4.192.539a12.76 12.76 0 0 1-3.18-.375V4.756c.246.057.499.109.756.153.422.071.867.123 1.301.155zm8.111.123-.578.195c-.532.179-1.068.339-1.608.481a19.61 19.61 0 0 1-4.804.616c-.377 0-.724-.01-1.06-.032l-.461-.03v13.015l.396.035c.367.032.746.048 1.128.048a15.335 15.335 0 0 0 3.783-.49 15.84 15.84 0 0 0 2.956-1.062l.247-.119V5.188zM20.421 25.836a.856.856 0 0 0-.643-.26.953.953 0 0 0-.372.07.828.828 0 0 0-.475.481.957.957 0 0 0-.067.359v2.168a1.03 1.03 0 0 0 .085.445c.051.111.125.21.217.291a.752.752 0 0 0 .298.154c.105.03.214.045.324.045a.906.906 0 0 0 .828-.568.873.873 0 0 0 .069-.346v-.243h-.567v.193a.506.506 0 0 1-.033.193.35.35 0 0 1-.082.122.33.33 0 0 1-.119.062.367.367 0 0 1-.119.02.283.283 0 0 1-.266-.116.512.512 0 0 1-.075-.291v-2.021a.686.686 0 0 1 .069-.324.284.284 0 0 1 .277-.13c.049-.002.097.008.141.03s.082.053.112.092a.461.461 0 0 1 .094.291v.187h.561v-.221a1.022 1.022 0 0 0-.069-.379.893.893 0 0 0-.189-.305zm3.367-.025a1.005 1.005 0 0 0-.645-.238.976.976 0 0 0-.637.238.886.886 0 0 0-.22.304 1.01 1.01 0 0 0-.082.42v2.079c-.004.146.024.292.082.426a.838.838 0 0 0 .22.291c.087.08.188.143.299.183a.976.976 0 0 0 .982-.183.893.893 0 0 0 .296-.717v-2.079a1.01 1.01 0 0 0-.082-.42.927.927 0 0 0-.214-.304zm-.265 2.803a.377.377 0 0 1-.112.301.414.414 0 0 1-.534 0 .38.38 0 0 1-.112-.301v-2.079a.377.377 0 0 1 .112-.301.414.414 0 0 1 .534 0 .38.38 0 0 1 .112.301v2.079zm4.687.929v-3.936h-.545l-.716 2.084h-.01l-.721-2.084h-.539v3.936h.562v-2.395h.01l.551 1.693h.28l.555-1.693h.01v2.395h.562zm3.195-3.661a.785.785 0 0 0-.318-.215 1.254 1.254 0 0 0-.408-.061h-.835v3.936h.561v-1.537h.289c.175.008.349-.029.506-.108a.817.817 0 0 0 .308-.301.94.94 0 0 0 .129-.343c.022-.148.032-.298.03-.448a2.212 2.212 0 0 0-.055-.562.828.828 0 0 0-.207-.362zm-.289 1.2a.49.49 0 0 1-.052.205.313.313 0 0 1-.145.138.574.574 0 0 1-.265.049h-.256v-1.338h.289a.55.55 0 0 1 .253.049.32.32 0 0 1 .132.145.572.572 0 0 1 .049.219v.262c0 .092.006.186 0 .27h-.006zm2.946-1.476h-.46l-.867 3.936h.561l.165-.846h.765l.165.846h.561l-.889-3.936zm-.518 2.555.276-1.427h.01l.275 1.427h-.561zm4.142-.183h-.01l-.847-2.371h-.539v3.936h.561v-2.367h.012l.857 2.367h.528v-3.936h-.561v2.371zm3.427-2.372-.451 1.565h-.012l-.451-1.565h-.594l.77 2.273v1.664h.561v-1.664l.77-2.273h-.594zm-22.256 5.048h.27v.759h.184v-.759h.269v-.155h-.723v.155zm2.273-.156-.354.914h.195l.075-.208h.364l.078.208h.2l-.363-.914h-.195zm-.029.553.124-.339.124.339H21.1zm2.275.025h.211v.118a.357.357 0 0 1-.217.077.23.23 0 0 1-.193-.087.39.39 0 0 1-.068-.238c0-.203.088-.305.263-.305a.194.194 0 0 1 .207.145l.181-.035c-.039-.179-.168-.269-.387-.269a.458.458 0 0 0-.319.118.457.457 0 0 0-.131.351.498.498 0 0 0 .117.343.446.446 0 0 0 .347.134.548.548 0 0 0 .387-.145v-.36h-.396v.154zm2.294-.578h-.185v.914h.64v-.155h-.455v-.759zm1.94 0h-.185v.914h.185v-.914zm1.897.611-.374-.61h-.179v.914h.172v-.597l.367.597h.184v-.914h-.169v.61zm1.714-.099h.455v-.155h-.455v-.201h.49v-.155h-.675v.914h.694v-.155h-.509v-.247zm4.157-.151h-.36v-.36h-.184v.914h.184v-.4h.36v.4h.184v-.914h-.184v.36zm1.725.151h.457v-.155h-.457v-.201h.492v-.155h-.675v.914h.692v-.155h-.509v-.247zm2.339 0c.159-.025.24-.109.24-.254a.213.213 0 0 0-.09-.203.516.516 0 0 0-.267-.054h-.387v.914h.184v-.382h.036a.262.262 0 0 1 .114.02c.027.017.049.04.065.067l.2.291h.22l-.111-.179a.642.642 0 0 0-.202-.219zm-.185-.126h-.136v-.23h.145a.476.476 0 0 1 .187.022.117.117 0 0 1 .04.095c-.001.018-.006.035-.014.051s-.02.029-.035.04a.536.536 0 0 1-.187.022zm1.949.126h.455v-.155h-.455v-.201h.492v-.155h-.676v.914h.694v-.155h-.509v-.247z" style="fill:var(--color4, #8e8f99)"/>
    </symbol>
    <symbol id="icon-Logo-3" viewBox="0 0 59 32">
      <path  d="M21.034 28.128c.009 0 .018.002.027.005s.016.008.022.014l.126.119a1.034 1.034 0 0 1-.355.225 1.4 1.4 0 0 1-.503.081 1.348 1.348 0 0 1-.473-.076 1.044 1.044 0 0 1-.357-.213.935.935 0 0 1-.23-.329 1.08 1.08 0 0 1-.08-.422 1.006 1.006 0 0 1 .087-.423.99.99 0 0 1 .244-.329 1.14 1.14 0 0 1 .379-.214c.155-.051.321-.077.487-.076.155-.003.309.02.453.069.125.046.24.111.339.19l-.106.127a.087.087 0 0 1-.027.023.07.07 0 0 1-.043.009.107.107 0 0 1-.046-.014l-.057-.034-.079-.043a.9.9 0 0 0-.25-.076 1.181 1.181 0 0 0-.538.043.73.73 0 0 0-.452.412.857.857 0 0 0-.065.334c-.002.116.02.23.065.34a.73.73 0 0 0 .437.408.96.96 0 0 0 .325.054c.064.001.129-.003.192-.011a.784.784 0 0 0 .417-.174.105.105 0 0 1 .06-.022zm3.644-.596c.002.143-.027.285-.085.419-.051.122-.132.233-.238.326s-.232.166-.373.214c-.309.101-.65.101-.959 0a1.127 1.127 0 0 1-.371-.214.956.956 0 0 1-.24-.329 1.074 1.074 0 0 1 0-.84.982.982 0 0 1 .24-.33c.106-.09.232-.16.371-.206.308-.102.651-.102.959 0 .14.049.267.122.372.214a.958.958 0 0 1 .323.747zm-.331 0a.892.892 0 0 0-.06-.337.687.687 0 0 0-.436-.411 1.122 1.122 0 0 0-.697 0 .747.747 0 0 0-.267.159.678.678 0 0 0-.17.252.976.976 0 0 0 0 .674.703.703 0 0 0 .437.41c.225.072.472.072.697 0a.7.7 0 0 0 .436-.41.873.873 0 0 0 .06-.337zm2.817.353.033.076.036-.076a.768.768 0 0 1 .041-.074l.806-1.252c.016-.022.03-.035.046-.039a.21.21 0 0 1 .066-.007h.238v2.036h-.282v-1.56a.41.41 0 0 1 0-.07l-.811 1.269c-.01.019-.027.035-.047.046s-.045.017-.069.017h-.046c-.025 0-.049-.006-.069-.017s-.037-.027-.047-.047l-.834-1.277v1.635h-.273v-2.032h.238a.21.21 0 0 1 .066.007c.02.008.035.022.044.039l.823 1.253c.016.023.03.047.041.073zm3.033-.101v.763h-.316v-2.034h.704a1.57 1.57 0 0 1 .393.044.793.793 0 0 1 .278.127.53.53 0 0 1 .158.199.619.619 0 0 1 .054.26.56.56 0 0 1-.228.463.822.822 0 0 1-.279.135 1.347 1.347 0 0 1-.38.047l-.382-.005zm0-.218h.382a.907.907 0 0 0 .244-.031.554.554 0 0 0 .177-.088.38.38 0 0 0 .145-.306c.004-.057-.007-.113-.032-.166s-.062-.1-.11-.139a.69.69 0 0 0-.424-.109h-.382v.838zm4.24.983h-.249a.116.116 0 0 1-.11-.066l-.215-.492h-1.077l-.222.492a.115.115 0 0 1-.11.066h-.249l.946-2.036h.328l.959 2.036zm-1.562-.756h.89l-.375-.829a1.33 1.33 0 0 1-.071-.191l-.036.106a.95.95 0 0 1-.035.086l-.372.828zm2.925-1.271a.131.131 0 0 1 .047.036l1.38 1.535v-1.58h.282v2.036h-.158a.16.16 0 0 1-.065-.012.161.161 0 0 1-.05-.038l-1.379-1.534a.41.41 0 0 1 0 .07v1.514h-.282v-2.036h.167a.18.18 0 0 1 .057.009zm4.034 1.217v.809h-.316v-.809l-.872-1.226h.282a.116.116 0 0 1 .068.018.187.187 0 0 1 .043.046l.546.791c.022.034.041.065.057.094s.028.058.039.086l.041-.088a.624.624 0 0 1 .054-.093l.538-.797a.208.208 0 0 1 .041-.043.107.107 0 0 1 .068-.02h.285l-.874 1.232zm-12.826-4.644c.137.015.276.027.416.038 2.128-.813 3.929-2.145 5.176-3.828s1.887-3.643 1.838-5.634l-2.346-2.004c.477 2.12.254 4.313-.644 6.331s-2.436 3.783-4.441 5.098z" style="fill:var(--color4, #8e8f99)"/>
      <path  d="m26.17 23.002.063.011c2.143-1.31 3.776-3.138 4.69-5.25s1.064-4.408.433-6.594l-3.341-2.854c1.351 2.346 1.895 4.972 1.568 7.572s-1.511 5.067-3.414 7.115zm11.33-6.978c-.568 2.188-1.946 4.162-3.931 5.628-.58.43-1.205.814-1.868 1.145 1.616-.406 3.102-1.123 4.342-2.097s2.202-2.178 2.812-3.52L37.5 16.024z" style="fill:var(--color4, #8e8f99)"/>
      <path  d="m36.968 15.702-1.929-1.648c-.037 1.879-.662 3.716-1.811 5.318s-2.779 2.914-4.721 3.796h.009c.433 0 .865-.022 1.295-.066 1.815-.633 3.418-1.64 4.667-2.931s2.104-2.826 2.489-4.469zm-10.519-8.59-2.301-1.969c-2.057.679-3.827 1.873-5.077 3.426s-1.922 3.392-1.928 5.276c.008 2.082.828 4.103 2.331 5.742s3.603 2.803 5.967 3.308c2.111-2.197 3.346-4.912 3.528-7.75s-.701-5.652-2.52-8.032zm15.837 8.287c-.008-2.47-1.161-4.838-3.205-6.585s-4.815-2.731-7.707-2.739a12.47 12.47 0 0 0-3.907.621l14.09 12.039a8.056 8.056 0 0 0 .729-3.337z" style="fill:var(--color4, #8e8f99)"/>
    </symbol>
    <symbol id="icon-Logo-4" viewBox="0 0 59 32">
      <path  d="M13.759 12.296h-.002c-1.363 0-2.468.996-2.468 2.225v.002c0 1.229 1.105 2.225 2.468 2.225h.002c1.363 0 2.468-.996 2.468-2.225v-.002c0-1.229-1.105-2.225-2.468-2.225zm18.219-.711c-.004-1.707-.758-3.343-2.096-4.551s-3.153-1.887-5.047-1.891c-1.894.003-3.709.683-5.049 1.89s-2.094 2.844-2.098 4.552v9.414s14.288-1.435 14.289-9.412v-.001zM6.286 24.088c.003 1.188.528 2.326 1.46 3.166s2.194 1.314 3.511 1.317c1.317-.003 2.579-.477 3.511-1.317s1.456-1.978 1.46-3.165v-6.55s-9.942.999-9.942 6.549zm4.971 1.174c-.258 0-.509-.069-.723-.198s-.381-.312-.479-.527-.124-.45-.074-.678c.05-.228.174-.437.356-.601s.414-.276.666-.321c.252-.045.514-.022.752.067s.441.239.584.432a1.093 1.093 0 0 1 .121 1.103 1.164 1.164 0 0 1-.282.382c-.121.109-.265.196-.423.256s-.328.09-.499.09v-.004zm9.091-2.111v2.438h-.502v-2.438h.502zm.971 1.042v.392h-1.108v-.392h1.108zm.117-1.042v.393h-1.225v-.393h1.225zm2.294 1.162v.116c0 .185-.025.352-.075.499s-.121.273-.213.377a.919.919 0 0 1-.328.236 1.039 1.039 0 0 1-.42.082c-.153 0-.293-.027-.42-.082a.946.946 0 0 1-.328-.236 1.09 1.09 0 0 1-.216-.377 1.548 1.548 0 0 1-.075-.499v-.116c0-.186.025-.353.075-.499.05-.147.121-.273.213-.377a.938.938 0 0 1 .328-.238c.127-.055.267-.082.42-.082.154 0 .294.027.42.082a.912.912 0 0 1 .328.238c.093.104.164.229.214.377.051.146.077.312.077.499zm-.508.116v-.119c0-.13-.012-.243-.035-.342s-.058-.181-.104-.248a.46.46 0 0 0-.393-.203.458.458 0 0 0-.392.203c-.045.067-.079.15-.102.248s-.035.212-.035.342v.119c0 .128.012.242.035.341a.744.744 0 0 0 .104.249c.046.067.102.118.167.152s.141.052.226.052a.454.454 0 0 0 .392-.204.764.764 0 0 0 .102-.249c.023-.099.035-.213.035-.341zm2.138.522a.326.326 0 0 0-.02-.117.221.221 0 0 0-.07-.097c-.035-.03-.083-.06-.146-.089s-.143-.059-.243-.09a3.168 3.168 0 0 1-.315-.121 1.28 1.28 0 0 1-.261-.156.688.688 0 0 1-.177-.209.58.58 0 0 1-.064-.276c0-.102.022-.194.067-.276a.63.63 0 0 1 .188-.214.88.88 0 0 1 .285-.139 1.3 1.3 0 0 1 .363-.049c.18 0 .337.032.47.097s.238.154.311.266a.683.683 0 0 1 .112.387h-.499a.382.382 0 0 0-.045-.188.304.304 0 0 0-.134-.129.48.48 0 0 0-.224-.047.518.518 0 0 0-.218.04.297.297 0 0 0-.131.105.262.262 0 0 0-.044.147c0 .041.01.079.03.112.021.034.052.065.094.094s.092.056.152.082c.06.026.13.051.209.075.133.04.249.085.35.136.102.05.186.107.254.169a.624.624 0 0 1 .206.483c0 .106-.021.201-.062.285s-.101.155-.179.213c-.078.058-.171.102-.28.132s-.229.045-.363.045a1.4 1.4 0 0 1-.357-.047 1.072 1.072 0 0 1-.32-.146c-.095-.065-.171-.147-.228-.248s-.085-.219-.085-.357h.504c0 .076.012.14.035.192s.056.095.099.127a.426.426 0 0 0 .154.07c.06.015.126.022.198.022a.527.527 0 0 0 .214-.037.272.272 0 0 0 .126-.102.268.268 0 0 0 .042-.147zm1.934-1.8v2.438h-.501v-2.438h.501zm.75 0v.393h-1.989v-.393h1.989zm1.922 2.046v.392h-1.297v-.392h1.297zm-1.134-2.046v2.438h-.502v-2.438h.502zm.965.993v.382h-1.128v-.382h1.128zm.167-.993v.393h-1.296v-.393h1.296zm.295 0h.909c.186 0 .346.028.48.084.135.056.239.138.311.248s.109.244.109.403a.773.773 0 0 1-.067.337.63.63 0 0 1-.186.233.965.965 0 0 1-.28.147l-.159.084h-.79l-.003-.392h.588c.088 0 .161-.016.219-.047s.102-.075.131-.131a.403.403 0 0 0 .045-.194c0-.078-.015-.146-.044-.203s-.073-.1-.132-.131-.133-.045-.223-.045h-.407v2.044h-.502V23.15zm1.362 2.438-.556-1.086.531-.003.562 1.066v.023h-.537zm2.637-.869h-.621v-.392h.621a.51.51 0 0 0 .234-.047c.06-.032.104-.077.132-.134s.042-.121.042-.192c0-.073-.014-.14-.042-.203s-.072-.113-.132-.151-.138-.057-.234-.057h-.447v2.044h-.502V23.15h.949c.191 0 .354.035.49.104a.742.742 0 0 1 .424.696c0 .157-.036.294-.109.408s-.177.204-.315.266c-.136.062-.3.094-.49.094zm2.896.477v.392h-1.297v-.392h1.297zm-1.133-2.046v2.438h-.502v-2.438h.502zm.964.993v.382h-1.128v-.382h1.128zm.168-.993v.393h-1.296v-.393h1.296zm1.418 0v2.438h-.501v-2.438h.501zm.75 0v.393h-1.989v-.393h1.989zm1.921 2.046v.392h-1.297v-.392h1.297zm-1.133-2.046v2.438h-.502v-2.438h.502zm.964.993v.382h-1.128v-.382h1.128zm.168-.993v.393h-1.296v-.393h1.296zm.294 0h.909c.186 0 .347.028.48.084.135.056.239.138.311.248s.109.244.109.403a.773.773 0 0 1-.067.337.63.63 0 0 1-.186.233.965.965 0 0 1-.28.147l-.159.084h-.79l-.003-.392h.588c.088 0 .161-.016.219-.047s.102-.075.131-.131a.403.403 0 0 0 .045-.194c0-.078-.014-.146-.044-.203s-.073-.1-.132-.131a.489.489 0 0 0-.223-.045h-.407v2.044h-.502V23.15zm1.363 2.438-.556-1.086.531-.003.563 1.066v.023h-.537zm2.103-.638a.326.326 0 0 0-.02-.117.221.221 0 0 0-.07-.097c-.035-.03-.083-.06-.146-.089s-.143-.059-.243-.09a3.076 3.076 0 0 1-.315-.121 1.28 1.28 0 0 1-.261-.156.58.58 0 0 1-.242-.485c0-.102.022-.194.067-.276a.63.63 0 0 1 .188-.214.88.88 0 0 1 .285-.139c.111-.032.232-.049.363-.049.18 0 .337.032.47.097s.238.154.311.266a.683.683 0 0 1 .112.387h-.499a.382.382 0 0 0-.045-.188.304.304 0 0 0-.134-.129.48.48 0 0 0-.224-.047.518.518 0 0 0-.218.04.297.297 0 0 0-.131.105.262.262 0 0 0-.044.147c0 .041.01.079.03.112.021.034.052.065.094.094s.092.056.152.082c.06.026.13.051.209.075.133.04.249.085.35.136.102.05.186.107.254.169a.624.624 0 0 1 .206.483c0 .106-.021.201-.062.285s-.101.155-.179.213c-.078.058-.171.102-.28.132s-.229.045-.363.045a1.4 1.4 0 0 1-.357-.047 1.072 1.072 0 0 1-.32-.146c-.095-.065-.171-.147-.228-.248s-.085-.219-.085-.357h.504c0 .076.012.14.035.192s.056.095.099.127a.426.426 0 0 0 .154.07c.06.015.126.022.198.022a.527.527 0 0 0 .214-.037.272.272 0 0 0 .126-.102.268.268 0 0 0 .042-.147z" style="fill:var(--color4, #8e8f99)"/>
    </symbol>
    <symbol id="icon-Logo-5" viewBox="0 0 59 32">
      <path  d="M15.31 25.356c.14.156.215.352.211.553.007.131-.018.262-.075.383s-.143.229-.252.316c-.273.185-.61.276-.951.255h-1.671v-3.504h1.637c.323-.019.644.063.907.233.106.08.19.18.245.294s.08.238.073.361a.76.76 0 0 1-.19.536.91.91 0 0 1-.498.274.975.975 0 0 1 .565.3zm-1.961-.529h.7a.719.719 0 0 0 .445-.116c.053-.043.093-.096.12-.155s.037-.123.031-.187a.397.397 0 0 0-.148-.342.733.733 0 0 0-.458-.118h-.688v.919zm1.213 1.344c.056-.044.1-.099.129-.161s.041-.129.036-.195c.004-.068-.009-.135-.038-.198s-.074-.118-.131-.162a.786.786 0 0 0-.475-.127h-.734v.964h.743a.794.794 0 0 0 .47-.122zm4.094.691-.911-1.369h-.342v1.369h-.783v-3.504h1.483a1.57 1.57 0 0 1 1.032.298c.207.19.332.441.353.707s-.066.529-.242.743a1.245 1.245 0 0 1-.707.356l.97 1.4h-.852zm-1.253-1.847h.641c.445 0 .668-.177.668-.531.005-.072-.008-.145-.036-.212s-.072-.13-.128-.181a.75.75 0 0 0-.504-.142h-.648l.008 1.067zm5.536 1.142h-1.561l-.276.705h-.821l1.434-3.465h.888l1.428 3.465h-.822l-.27-.705zm-.21-.53-.57-1.479-.57 1.479h1.141zm5.57 1.236h-.778l-1.744-2.383v2.383h-.776v-3.504h.776l1.744 2.397v-2.397h.778v3.504zm4.438-.839c-.161.265-.406.48-.704.618-.339.154-.714.23-1.093.221h-1.384v-3.504h1.384c.378-.009.754.065 1.093.216.298.135.543.348.704.611.16.285.243.6.243.919s-.083.634-.243.919zm-.89-.084c.222-.233.344-.529.344-.836s-.122-.603-.344-.836a1.448 1.448 0 0 0-.974-.298h-.54v2.268h.54c.355.02.705-.087.974-.298zM23.425 3.867s10.038 3.412 9.825 8.349v8.351s-10.031-3.413-9.821-8.351l-.004-8.349zm18.769 14.744c1.896-1.175 4.089-1.902 6.378-2.116v-2.614c-2.638.915-4.875 2.575-6.378 4.73z" style="fill:var(--color4, #8e8f99)"/>
      <path  d="M41.055 19.399c1.552-2.813 4.242-4.983 7.517-6.065V5.802s-14.296 4.86-13.993 11.891v11.889s.637-.217 1.639-.625c0-.38 0-.764.046-1.149.296-3.264 2.02-6.289 4.792-8.409z" style="fill:var(--color4, #8e8f99)"/>
      <path  d="M39.695 23.815c.075-.825.243-1.64.5-2.434-1.726 1.831-2.772 4.103-2.989 6.497-.021.226-.032.452-.038.685a43.581 43.581 0 0 0 2.75-1.304 11.103 11.103 0 0 1-.222-3.443zm.569.043a10.594 10.594 0 0 0 .177 3.117c3.906-2.104 8.294-5.355 8.125-9.284v-.342c-2.791.281-5.401 1.379-7.431 3.126a10.75 10.75 0 0 0-.871 3.383z" style="fill:var(--color4, #8e8f99)"/>
    </symbol>
    <symbol id="icon-Logo-6" viewBox="0 0 59 32">
      <path  d="M30.588 15.682a1.685 1.685 0 0 1-.346-1.138v-1.65c0-.506.115-.89.344-1.153s.624-.394 1.183-.393c.525 0 .898.112 1.119.336.24.286.358.635.331.987v.388h-.94v-.393a2.056 2.056 0 0 0-.027-.384.373.373 0 0 0-.134-.228.541.541 0 0 0-.34-.089.577.577 0 0 0-.358.094.443.443 0 0 0-.156.252 1.93 1.93 0 0 0-.037.408v2.003c-.015.193.027.387.121.562.047.06.112.107.188.136s.16.041.242.032c.12.009.24-.024.333-.091a.4.4 0 0 0 .14-.243 2.16 2.16 0 0 0 .029-.401v-.406h.94v.371c.026.367-.088.732-.325 1.038-.216.245-.584.368-1.125.368s-.949-.131-1.181-.403zm3.913.017c-.237-.257-.356-.631-.356-1.127v-1.736c0-.49.119-.861.356-1.113s.634-.377 1.191-.376c.553 0 .947.125 1.185.376.237.252.358.623.358 1.113v1.736c0 .49-.121.866-.362 1.125s-.634.388-1.181.388-.951-.131-1.191-.386zm1.628-.417a.968.968 0 0 0 .113-.514v-2.125a.943.943 0 0 0-.111-.504c-.048-.061-.114-.109-.192-.138s-.164-.04-.248-.03c-.084-.01-.17 0-.248.03s-.145.077-.193.138a.922.922 0 0 0-.113.504v2.136a.95.95 0 0 0 .113.514.576.576 0 0 0 .198.127.68.68 0 0 0 .484 0 .59.59 0 0 0 .198-.127v-.01zm2.235-3.884h1.012l.761 3.203.778-3.203h.984l.099 4.623h-.728l-.078-3.213-.751 3.213h-.584l-.778-3.225-.072 3.225h-.735l.091-4.623zm4.769 0h1.576c.908 0 1.362.438 1.362 1.313 0 .838-.478 1.257-1.434 1.256H44.1v2.055h-.973l.006-4.623zm1.346 1.976c.096.011.194.003.286-.022s.177-.067.249-.124a.744.744 0 0 0 .14-.522 1.457 1.457 0 0 0-.047-.42c-.014-.046-.038-.089-.072-.127s-.075-.069-.123-.093a1.012 1.012 0 0 0-.434-.074h-.377v1.382h.377zm2.995-1.976h1.045l1.072 4.623h-.907l-.212-1.066h-.932l-.218 1.066h-.92l1.072-4.623zm.893 3.021-.364-1.941-.364 1.941h.728zm2.089-3.021h.681l1.304 2.637v-2.637h.807v4.623H52.6l-1.311-2.753v2.753h-.835l.002-4.623zm4.683 2.86-1.084-2.854h.912l.661 1.833.621-1.833h.893l-1.07 2.854v1.763h-.934v-1.763zM32.09 18.042v.242h-.794v1.879h-.333v-1.879h-.798v-.242h1.924zm2.488 2.121h-.257a.119.119 0 0 1-.072-.02.113.113 0 0 1-.043-.049l-.23-.504h-1.101l-.23.504a.147.147 0 0 1-.035.057.119.119 0 0 1-.072.02h-.257l.973-2.12h.339l.984 2.112zm-1.61-.788h.918l-.389-.863a1.447 1.447 0 0 1-.072-.2l-.037.113-.035.089-.385.861zm3.288.579c.061.003.122.003.183 0 .053-.005.105-.013.156-.025.048-.01.094-.023.14-.039.043-.015.086-.034.13-.052v-.477h-.389a.086.086 0 0 1-.028-.004.07.07 0 0 1-.039-.03.038.038 0 0 1-.005-.021v-.163h.755v.813a1.497 1.497 0 0 1-.654.217 2.687 2.687 0 0 1-.284.013 1.497 1.497 0 0 1-.49-.079 1.178 1.178 0 0 1-.389-.222 1.028 1.028 0 0 1-.251-.336 1.07 1.07 0 0 1-.09-.44 1.099 1.099 0 0 1 .088-.443.97.97 0 0 1 .251-.336 1.19 1.19 0 0 1 .389-.22c.167-.054.343-.081.521-.079.091 0 .181.006.27.018a1.273 1.273 0 0 1 .595.249l-.093.131c-.007.012-.018.022-.032.029s-.029.011-.044.011a.123.123 0 0 1-.06-.017 1.127 1.127 0 0 1-.095-.05.947.947 0 0 0-.13-.057 1.208 1.208 0 0 0-.426-.065 1.165 1.165 0 0 0-.376.059.835.835 0 0 0-.286.168.734.734 0 0 0-.181.264.99.99 0 0 0 0 .707c.043.1.109.191.195.267.08.073.177.13.284.168.124.037.255.051.385.042zm3.101-.033h1.062v.242h-1.387v-2.12h.333l-.008 1.879zm2.167.241h-.333v-2.12h.333v2.12zm1.237-2.11c.02.01.037.023.051.039l1.422 1.598a.482.482 0 0 1 0-.076v-1.58h.29v2.129h-.167a.146.146 0 0 1-.072-.012.211.211 0 0 1-.053-.04l-1.42-1.597v1.649h-.278v-2.12h.173a.14.14 0 0 1 .054.01zm4.213-.01v.233h-1.179v.7h.955v.225h-.955v.724h1.179v.233h-1.521v-2.115h1.521zM12.112 4.948l14.772 3.619V21.25l-14.772-3.618V4.947zm-.948-1.081v14.382l16.666 4.084V7.953L11.164 3.867z" style="fill:var(--color4, #8e8f99)"/>
      <path  d="M20.096 29.01 3.429 24.922V10.541l16.667 4.086v14.382z" style="fill:var(--color4, #8e8f99)"/>
      <path  d="m11.44 4.785 14.58 3.574-6.2 5.352-14.582-3.576 6.202-5.35zm-.276-.918-7.735 6.675 16.667 4.086 7.733-6.675-16.666-4.086zm9.87 24.334 6.796-5.866-6.796-1.667V28.2z" style="fill:var(--color4, #8e8f99)"/>
    </symbol>
    <symbol id="icon-twitter-1" viewBox="0 0 32 32">
      <path fill="#f4f4fd" d="M32 6.078c-1.19.522-2.458.868-3.78 1.036a6.523 6.523 0 0 0 2.886-3.626 13.11 13.11 0 0 1-4.16 1.588A6.574 6.574 0 0 0 22.154 3c-3.632 0-6.556 2.948-6.556 6.562 0 .52.044 1.02.152 1.496-5.454-.266-10.28-2.88-13.522-6.862a6.605 6.605 0 0 0-.898 3.316 6.57 6.57 0 0 0 2.914 5.452 6.479 6.479 0 0 1-2.964-.808v.072c0 3.188 2.274 5.836 5.256 6.446a6.548 6.548 0 0 1-1.72.216 5.8 5.8 0 0 1-1.242-.112c.85 2.598 3.262 4.508 6.13 4.57a13.182 13.182 0 0 1-8.134 2.798c-.538 0-1.054-.024-1.57-.09A18.469 18.469 0 0 0 10.064 29c12.072 0 18.672-10 18.672-18.668 0-.29-.01-.57-.024-.848A13.087 13.087 0 0 0 32 6.078z" style="fill:var(--color3, #f4f4fd)"/>
    </symbol>
    <symbol id="icon-close-black-1" viewBox="0 0 32 32">
<path d="M32 3.224l-3.224-3.224-12.776 12.776-12.776-12.776-3.224 3.224 12.776 12.776-12.776 12.776 3.224 3.224 12.776-12.776 12.776 12.776 3.224-3.224-12.776-12.776 12.776-12.776z"></path>
</symbol>
<symbol id="icon-person-black" viewBox="0 0 32 32">
<path d="M16 16c2.946 0 5.333-2.388 5.333-5.333s-2.388-5.333-5.333-5.333v0c-2.946 0-5.333 2.388-5.333 5.333s2.388 5.333 5.333 5.333v0zM16 18.667c-3.561 0-10.667 1.787-10.667 5.333v1.333c0 0.732 0.599 1.333 1.333 1.333h18.667c0.732 0 1.333-0.601 1.333-1.333v-1.333c0-3.547-7.108-5.333-10.667-5.333z"></path>
</symbol>
<symbol id="icon-phone-black" viewBox="0 0 24 32">
<path d="M19.635 18.487l-2.451-0.28c-0.067-0.008-0.145-0.013-0.223-0.013-0.531 0-1.012 0.215-1.36 0.564l-1.775 1.775c-2.752-1.42-4.94-3.607-6.322-6.278l-0.038-0.081 1.787-1.785c0.347-0.347 0.562-0.827 0.562-1.358 0-0.079-0.005-0.156-0.014-0.233l0.001 0.009-0.28-2.432c-0.115-0.966-0.93-1.708-1.918-1.708-0.001 0-0.002 0-0.002 0h-1.669c-1.091 0-1.997 0.907-1.929 1.997 0.511 8.24 7.101 14.821 15.332 15.333 1.091 0.067 1.997-0.84 1.997-1.931v-1.669c0-0.003 0-0.007 0-0.011 0-0.981-0.739-1.789-1.69-1.899l-0.009-0.001z"></path>
</symbol>
<symbol id="icon-email-black1" viewBox="0 0 24 32">
<path fill="#e5e5e5" style="fill: var(--color1, #e5e5e5)" d="M0 0h24v32h-24v-32z"></path>
<path fill="#fff" style="fill: var(--color2, #fff)" d="M-741.333-466.667h1920v896h-1920v-896z"></path>
<path fill="#000" style="fill: var(--color3, #000)" d="M-741.333-370.667h1920v800h-1920v-800z"></path>
<path fill="#2e2f42" style="fill: var(--color4, #2e2f42)" opacity="0.7" d="M-741.333-370.667h1920v800h-1920v-800z"></path>
<path fill="#fff" style="fill: var(--color2, #fff)" d="M-70.289-52.531v8.531h-28.255v-8.531h28.255zM-94.971-97.083v53.083h-10.938v-53.083h10.938zM-73.971-75.464v8.313h-24.573v-8.313h24.573zM-70.325-97.083v8.568h-28.219v-8.568h28.219zM-50.348-44h-10.573v-42.948c0-2.99 0.583-5.505 1.75-7.547 1.191-2.066 2.856-3.621 4.995-4.667 2.163-1.069 4.727-1.604 7.693-1.604 0.972 0 1.908 0.073 2.807 0.219 0.899 0.122 1.774 0.28 2.625 0.474l-0.109 7.911c-0.462-0.121-0.948-0.207-1.458-0.255s-1.106-0.073-1.787-0.073c-1.264 0-2.345 0.219-3.245 0.656-0.875 0.413-1.543 1.033-2.005 1.859s-0.693 1.835-0.693 3.026v42.948zM-42.473-83.448v7.437h-24.318v-7.437h24.318zM-22.094-44h-10.573v-42.948c0-2.99 0.583-5.505 1.75-7.547 1.191-2.066 2.856-3.621 4.995-4.667 2.163-1.069 4.727-1.604 7.693-1.604 0.972 0 1.908 0.073 2.807 0.219 0.899 0.122 1.774 0.28 2.625 0.474l-0.109 7.911c-0.462-0.121-0.948-0.207-1.458-0.255s-1.106-0.073-1.786-0.073c-1.264 0-2.346 0.219-3.245 0.656-0.875 0.413-1.543 1.033-2.005 1.859s-0.693 1.835-0.693 3.026v42.948zM-14.219-83.448v7.437h-24.318v-7.437h24.318zM10.061-43.271c-3.063 0-5.809-0.486-8.24-1.458-2.431-0.997-4.497-2.37-6.198-4.12-1.677-1.75-2.965-3.78-3.865-6.089-0.899-2.333-1.349-4.813-1.349-7.437v-1.458c0-2.99 0.425-5.724 1.276-8.203s2.066-4.63 3.646-6.453c1.604-1.823 3.549-3.221 5.833-4.193 2.285-0.997 4.861-1.495 7.729-1.495 2.795 0 5.274 0.462 7.437 1.385s3.974 2.236 5.432 3.938c1.483 1.701 2.601 3.743 3.354 6.125 0.753 2.358 1.13 4.983 1.13 7.875v4.375h-31.354v-7h21.037v-0.802c0-1.458-0.267-2.759-0.802-3.901-0.51-1.167-1.288-2.090-2.333-2.771s-2.382-1.021-4.010-1.021c-1.385 0-2.576 0.304-3.573 0.911s-1.811 1.458-2.443 2.552c-0.608 1.094-1.069 2.382-1.385 3.865-0.292 1.458-0.438 3.063-0.438 4.813v1.458c0 1.58 0.219 3.038 0.656 4.375 0.462 1.337 1.106 2.491 1.932 3.464 0.851 0.972 1.872 1.726 3.063 2.26 1.215 0.535 2.589 0.802 4.12 0.802 1.896 0 3.658-0.365 5.287-1.094 1.653-0.753 3.075-1.884 4.266-3.391l5.104 5.542c-0.826 1.191-1.957 2.333-3.391 3.427-1.41 1.094-3.111 1.993-5.104 2.698-1.993 0.681-4.266 1.021-6.818 1.021zM50.018-51.474c1.288 0 2.431-0.243 3.427-0.729 0.997-0.511 1.774-1.215 2.333-2.115 0.583-0.924 0.887-2.005 0.911-3.245h9.88c-0.024 2.771-0.766 5.238-2.224 7.401-1.458 2.139-3.415 3.828-5.87 5.068-2.455 1.215-5.201 1.823-8.24 1.823-3.062 0-5.736-0.51-8.021-1.531-2.26-1.021-4.144-2.431-5.651-4.229-1.507-1.823-2.637-3.938-3.391-6.344-0.753-2.431-1.13-5.031-1.13-7.802v-1.057c0-2.795 0.377-5.396 1.13-7.802 0.753-2.431 1.884-4.545 3.391-6.344 1.507-1.823 3.391-3.245 5.651-4.266s4.91-1.531 7.948-1.531c3.233 0 6.064 0.62 8.495 1.859 2.455 1.24 4.375 3.014 5.76 5.323 1.41 2.285 2.127 4.995 2.151 8.13h-9.88c-0.024-1.313-0.304-2.503-0.839-3.573-0.51-1.069-1.264-1.92-2.26-2.552-0.972-0.656-2.175-0.984-3.609-0.984-1.531 0-2.783 0.328-3.755 0.984-0.972 0.632-1.726 1.507-2.26 2.625-0.535 1.094-0.911 2.345-1.13 3.755-0.195 1.385-0.292 2.844-0.292 4.375v1.057c0 1.531 0.097 3.002 0.292 4.411s0.559 2.661 1.094 3.755c0.559 1.094 1.325 1.957 2.297 2.589s2.236 0.948 3.792 0.948zM93.475-83.448v7.437h-22.969v-7.437h22.969zM76.193-93.182h10.5v37.297c0 1.142 0.146 2.017 0.437 2.625 0.316 0.608 0.778 1.033 1.385 1.276 0.608 0.219 1.373 0.328 2.297 0.328 0.656 0 1.24-0.024 1.75-0.073 0.535-0.073 0.984-0.146 1.349-0.219l0.036 7.729c-0.899 0.292-1.871 0.523-2.917 0.693s-2.2 0.255-3.463 0.255c-2.309 0-4.326-0.377-6.052-1.13-1.701-0.778-3.014-2.017-3.937-3.719s-1.385-3.938-1.385-6.708v-38.354zM112.030-83.448v39.448h-10.536v-39.448h10.536zM100.838-93.729c0-1.531 0.535-2.795 1.604-3.792s2.503-1.495 4.302-1.495c1.774 0 3.196 0.498 4.266 1.495 1.094 0.997 1.641 2.26 1.641 3.792s-0.547 2.795-1.641 3.792c-1.069 0.997-2.491 1.495-4.266 1.495-1.799 0-3.233-0.498-4.302-1.495s-1.604-2.26-1.604-3.792zM135.617-51.656l8.751-31.792h10.973l-13.307 39.448h-6.636l0.219-7.656zM129.602-83.448l8.786 31.828 0.183 7.62h-6.672l-13.307-39.448h11.010zM179.184-43.271c-3.063 0-5.809-0.486-8.24-1.458-2.431-0.997-4.496-2.37-6.197-4.12-1.677-1.75-2.965-3.78-3.865-6.089-0.899-2.333-1.348-4.813-1.348-7.437v-1.458c0-2.99 0.425-5.724 1.276-8.203s2.065-4.63 3.645-6.453c1.604-1.823 3.548-3.221 5.833-4.193 2.284-0.997 4.861-1.495 7.729-1.495 2.795 0 5.275 0.462 7.437 1.385s3.973 2.236 5.432 3.938c1.483 1.701 2.601 3.743 3.355 6.125 0.753 2.358 1.129 4.983 1.129 7.875v4.375h-31.353v-7h21.036v-0.802c0-1.458-0.267-2.759-0.801-3.901-0.511-1.167-1.289-2.090-2.333-2.771-1.045-0.681-2.383-1.021-4.011-1.021-1.385 0-2.577 0.304-3.573 0.911s-1.811 1.458-2.443 2.552c-0.608 1.094-1.069 2.382-1.385 3.865-0.292 1.458-0.437 3.063-0.437 4.813v1.458c0 1.58 0.219 3.038 0.656 4.375 0.461 1.337 1.105 2.491 1.932 3.464 0.851 0.972 1.872 1.726 3.063 2.26 1.216 0.535 2.589 0.802 4.12 0.802 1.896 0 3.657-0.365 5.287-1.094 1.652-0.753 3.075-1.884 4.265-3.391l5.104 5.542c-0.827 1.191-1.956 2.333-3.391 3.427-1.409 1.094-3.111 1.993-5.104 2.698-1.993 0.681-4.265 1.021-6.817 1.021zM251.223-57.891c0-0.948-0.147-1.799-0.437-2.552-0.268-0.778-0.779-1.483-1.532-2.115-0.753-0.656-1.811-1.3-3.172-1.932-1.36-0.632-3.123-1.288-5.285-1.969-2.407-0.778-4.692-1.653-6.855-2.625-2.139-0.972-4.035-2.102-5.688-3.391-1.628-1.312-2.916-2.832-3.864-4.557-0.924-1.726-1.385-3.731-1.385-6.016 0-2.212 0.485-4.217 1.459-6.016 0.972-1.823 2.333-3.378 4.083-4.667 1.751-1.312 3.816-2.321 6.197-3.026 2.407-0.705 5.044-1.057 7.912-1.057 3.913 0 7.328 0.705 10.245 2.115 2.916 1.41 5.176 3.342 6.781 5.797 1.628 2.455 2.443 5.262 2.443 8.422h-10.865c0-1.555-0.328-2.917-0.984-4.083-0.632-1.191-1.604-2.127-2.917-2.807-1.288-0.681-2.916-1.021-4.885-1.021-1.896 0-3.475 0.292-4.739 0.875-1.264 0.559-2.212 1.325-2.844 2.297-0.632 0.948-0.948 2.017-0.948 3.208 0 0.899 0.219 1.713 0.656 2.443 0.461 0.729 1.143 1.41 2.041 2.042 0.9 0.632 2.005 1.227 3.319 1.786 1.312 0.559 2.831 1.106 4.557 1.641 2.892 0.875 5.432 1.859 7.619 2.953 2.212 1.094 4.060 2.321 5.543 3.682s2.6 2.905 3.353 4.63 1.131 3.682 1.131 5.87c0 2.309-0.449 4.375-1.349 6.198-0.899 1.823-2.199 3.366-3.901 4.63-1.701 1.264-3.731 2.224-6.088 2.88s-4.995 0.984-7.912 0.984c-2.624 0-5.213-0.34-7.765-1.021-2.552-0.705-4.873-1.762-6.963-3.172-2.067-1.41-3.719-3.208-4.959-5.396s-1.86-4.776-1.86-7.766h10.975c0 1.653 0.255 3.050 0.765 4.193s1.228 2.066 2.151 2.771c0.948 0.705 2.067 1.215 3.355 1.531 1.312 0.316 2.747 0.474 4.301 0.474 1.896 0 3.452-0.267 4.667-0.802 1.24-0.535 2.152-1.276 2.735-2.224 0.608-0.948 0.912-2.017 0.912-3.208zM268.757-63.323v-0.766c0-2.892 0.413-5.554 1.24-7.984 0.827-2.455 2.029-4.582 3.609-6.38s3.524-3.196 5.833-4.193c2.309-1.021 4.959-1.531 7.948-1.531s5.651 0.51 7.984 1.531c2.333 0.997 4.291 2.394 5.869 4.193 1.605 1.799 2.82 3.925 3.647 6.38 0.827 2.431 1.239 5.092 1.239 7.984v0.766c0 2.868-0.412 5.529-1.239 7.984-0.827 2.431-2.041 4.557-3.647 6.38-1.579 1.799-3.524 3.196-5.833 4.193-2.308 0.997-4.957 1.495-7.948 1.495-2.989 0-5.651-0.498-7.984-1.495-2.309-0.997-4.265-2.394-5.869-4.193-1.58-1.823-2.783-3.95-3.609-6.38-0.827-2.455-1.24-5.116-1.24-7.984zM279.257-64.089v0.766c0 1.653 0.145 3.196 0.437 4.63s0.753 2.698 1.385 3.792c0.656 1.069 1.508 1.908 2.552 2.516 1.045 0.608 2.321 0.911 3.828 0.911 1.459 0 2.711-0.304 3.756-0.911s1.884-1.446 2.516-2.516c0.632-1.094 1.093-2.358 1.385-3.792 0.316-1.434 0.473-2.977 0.473-4.63v-0.766c0-1.604-0.157-3.111-0.473-4.521-0.292-1.434-0.767-2.698-1.423-3.792-0.632-1.118-1.471-1.993-2.515-2.625-1.045-0.632-2.309-0.948-3.792-0.948s-2.747 0.316-3.792 0.948c-1.021 0.632-1.86 1.507-2.516 2.625-0.632 1.094-1.093 2.358-1.385 3.792-0.292 1.41-0.437 2.917-0.437 4.521zM325.157-100v56h-10.537v-56h10.537zM358.661-53.443v-30.005h10.5v39.448h-9.881l-0.619-9.443zM359.828-61.536l3.099-0.073c0 2.625-0.304 5.068-0.912 7.328-0.607 2.236-1.519 4.181-2.735 5.833-1.215 1.628-2.745 2.904-4.593 3.828-1.847 0.899-4.023 1.349-6.525 1.349-1.92 0-3.695-0.267-5.324-0.802-1.604-0.559-2.989-1.422-4.156-2.589-1.143-1.191-2.041-2.71-2.697-4.557-0.632-1.871-0.948-4.12-0.948-6.745v-25.484h10.5v25.557c0 1.167 0.133 2.151 0.401 2.953 0.291 0.802 0.692 1.458 1.203 1.969s1.105 0.875 1.787 1.094c0.704 0.219 1.483 0.328 2.333 0.328 2.163 0 3.864-0.437 5.104-1.312 1.264-0.875 2.151-2.066 2.661-3.573 0.535-1.531 0.803-3.233 0.803-5.104zM397.997-83.448v7.437h-22.968v-7.437h22.968zM380.716-93.182h10.5v37.297c0 1.142 0.147 2.017 0.439 2.625 0.316 0.608 0.777 1.033 1.385 1.276 0.607 0.219 1.373 0.328 2.296 0.328 0.657 0 1.24-0.024 1.751-0.073 0.535-0.073 0.984-0.146 1.349-0.219l0.036 7.729c-0.9 0.292-1.872 0.523-2.917 0.693-1.044 0.17-2.199 0.255-3.463 0.255-2.309 0-4.327-0.377-6.052-1.13-1.701-0.778-3.015-2.017-3.937-3.719-0.924-1.701-1.387-3.938-1.387-6.708v-38.354zM416.553-83.448v39.448h-10.536v-39.448h10.536zM405.361-93.729c0-1.531 0.535-2.795 1.604-3.792s2.503-1.495 4.301-1.495c1.775 0 3.197 0.498 4.267 1.495 1.093 0.997 1.64 2.26 1.64 3.792s-0.547 2.795-1.64 3.792c-1.069 0.997-2.492 1.495-4.267 1.495-1.799 0-3.232-0.498-4.301-1.495s-1.604-2.26-1.604-3.792zM425.047-63.323v-0.766c0-2.892 0.413-5.554 1.24-7.984 0.827-2.455 2.029-4.582 3.609-6.38s3.524-3.196 5.833-4.193c2.309-1.021 4.959-1.531 7.948-1.531s5.651 0.51 7.984 1.531c2.333 0.997 4.291 2.394 5.871 4.193 1.604 1.799 2.819 3.925 3.645 6.38 0.827 2.431 1.24 5.092 1.24 7.984v0.766c0 2.868-0.413 5.529-1.24 7.984-0.827 2.431-2.041 4.557-3.645 6.38-1.58 1.799-3.525 3.196-5.833 4.193-2.309 0.997-4.959 1.495-7.948 1.495-2.991 0-5.652-0.498-7.985-1.495-2.308-0.997-4.265-2.394-5.869-4.193-1.58-1.823-2.783-3.95-3.609-6.38-0.827-2.455-1.24-5.116-1.24-7.984zM435.547-64.089v0.766c0 1.653 0.147 3.196 0.437 4.63 0.292 1.434 0.755 2.698 1.387 3.792 0.656 1.069 1.507 1.908 2.552 2.516 1.044 0.608 2.32 0.911 3.828 0.911 1.457 0 2.709-0.304 3.755-0.911s1.884-1.446 2.516-2.516c0.632-1.094 1.093-2.358 1.385-3.792 0.316-1.434 0.473-2.977 0.473-4.63v-0.766c0-1.604-0.157-3.111-0.473-4.521-0.292-1.434-0.765-2.698-1.423-3.792-0.631-1.118-1.469-1.993-2.515-2.625s-2.309-0.948-3.792-0.948-2.747 0.316-3.792 0.948c-1.020 0.632-1.859 1.507-2.515 2.625-0.632 1.094-1.095 2.358-1.387 3.792-0.291 1.41-0.437 2.917-0.437 4.521zM480.644-75.026v31.026h-10.5v-39.448h9.844l0.656 8.422zM479.113-65.109h-2.844c0-2.917 0.377-5.542 1.131-7.875 0.753-2.358 1.811-4.363 3.172-6.016 1.361-1.677 2.977-2.953 4.848-3.828 1.896-0.899 4.011-1.349 6.344-1.349 1.848 0 3.537 0.267 5.068 0.802 1.532 0.535 2.844 1.385 3.937 2.552 1.119 1.167 1.969 2.71 2.552 4.63 0.608 1.92 0.912 4.266 0.912 7.036v25.156h-10.573v-25.193c0-1.75-0.243-3.111-0.729-4.083-0.485-0.972-1.203-1.653-2.151-2.042-0.924-0.413-2.065-0.62-3.427-0.62-1.411 0-2.637 0.279-3.683 0.839-1.021 0.559-1.872 1.337-2.552 2.333-0.656 0.972-1.155 2.115-1.495 3.427s-0.511 2.722-0.511 4.229zM535.039-54.901c0-0.753-0.219-1.434-0.656-2.042s-1.252-1.167-2.443-1.677c-1.167-0.535-2.856-1.021-5.068-1.458-1.993-0.437-3.852-0.984-5.577-1.641-1.701-0.681-3.184-1.495-4.448-2.443-1.24-0.948-2.212-2.066-2.917-3.354-0.704-1.313-1.057-2.807-1.057-4.484 0-1.653 0.353-3.208 1.057-4.667 0.729-1.458 1.763-2.747 3.099-3.865 1.361-1.142 3.015-2.030 4.959-2.661 1.969-0.656 4.181-0.984 6.636-0.984 3.427 0 6.368 0.547 8.823 1.641 2.479 1.094 4.375 2.601 5.688 4.521 1.336 1.896 2.004 4.059 2.004 6.49h-10.5c0-1.021-0.219-1.932-0.656-2.734-0.413-0.826-1.069-1.471-1.968-1.932-0.876-0.486-2.017-0.729-3.428-0.729-1.167 0-2.175 0.207-3.025 0.62-0.851 0.389-1.507 0.924-1.969 1.604-0.437 0.656-0.656 1.385-0.656 2.187 0 0.608 0.121 1.155 0.365 1.641 0.267 0.462 0.692 0.887 1.276 1.276 0.583 0.389 1.336 0.753 2.26 1.094 0.948 0.316 2.115 0.608 3.5 0.875 2.844 0.583 5.384 1.349 7.62 2.297 2.236 0.924 4.011 2.187 5.323 3.792 1.312 1.58 1.968 3.658 1.968 6.234 0 1.75-0.388 3.354-1.167 4.813-0.777 1.458-1.895 2.734-3.353 3.828-1.459 1.069-3.208 1.908-5.251 2.516-2.017 0.583-4.289 0.875-6.817 0.875-3.671 0-6.781-0.656-9.333-1.969-2.528-1.313-4.448-2.977-5.76-4.995-1.288-2.042-1.932-4.132-1.932-6.271h9.952c0.049 1.434 0.413 2.589 1.095 3.464 0.704 0.875 1.592 1.507 2.661 1.896 1.093 0.389 2.272 0.583 3.536 0.583 1.361 0 2.492-0.182 3.391-0.547 0.9-0.389 1.58-0.899 2.041-1.531 0.487-0.656 0.729-1.41 0.729-2.26zM-73.389 36h-10.573v-42.948c0-2.99 0.583-5.505 1.75-7.547 1.191-2.066 2.856-3.621 4.995-4.667 2.163-1.069 4.727-1.604 7.693-1.604 0.972 0 1.908 0.073 2.807 0.219 0.899 0.122 1.774 0.28 2.625 0.474l-0.109 7.911c-0.462-0.122-0.948-0.207-1.458-0.255s-1.106-0.073-1.786-0.073c-1.264 0-2.345 0.219-3.245 0.656-0.875 0.413-1.543 1.033-2.005 1.859s-0.693 1.835-0.693 3.026v42.948zM-65.514-3.448v7.438h-24.318v-7.438h24.318zM-60.193 16.677v-0.766c0-2.892 0.413-5.554 1.24-7.984 0.826-2.455 2.029-4.582 3.609-6.38s3.524-3.196 5.833-4.193c2.309-1.021 4.958-1.531 7.948-1.531s5.651 0.51 7.984 1.531c2.333 0.997 4.29 2.394 5.87 4.193 1.604 1.799 2.819 3.925 3.646 6.38 0.826 2.431 1.24 5.092 1.24 7.984v0.766c0 2.868-0.413 5.529-1.24 7.984-0.826 2.431-2.042 4.557-3.646 6.38-1.58 1.799-3.524 3.196-5.833 4.193s-4.958 1.495-7.948 1.495c-2.99 0-5.651-0.498-7.984-1.495-2.309-0.997-4.266-2.394-5.87-4.193-1.58-1.823-2.783-3.95-3.609-6.38-0.826-2.455-1.24-5.116-1.24-7.984zM-49.693 15.911v0.766c0 1.653 0.146 3.196 0.437 4.63s0.753 2.698 1.385 3.792c0.656 1.069 1.507 1.908 2.552 2.516s2.321 0.911 3.828 0.911c1.458 0 2.71-0.304 3.755-0.911s1.884-1.446 2.516-2.516c0.632-1.094 1.094-2.358 1.385-3.792 0.316-1.434 0.474-2.977 0.474-4.63v-0.766c0-1.604-0.158-3.111-0.474-4.521-0.292-1.434-0.766-2.698-1.422-3.792-0.632-1.118-1.47-1.993-2.516-2.625s-2.309-0.948-3.792-0.948c-1.483 0-2.747 0.316-3.792 0.948-1.021 0.632-1.859 1.507-2.516 2.625-0.632 1.094-1.094 2.358-1.385 3.792-0.292 1.41-0.437 2.917-0.437 4.521zM-4.377 5.156v30.844h-10.5v-39.448h9.88l0.62 8.604zM7.509-3.703l-0.182 9.734c-0.51-0.073-1.13-0.134-1.859-0.182-0.705-0.073-1.349-0.109-1.932-0.109-1.483 0-2.771 0.194-3.865 0.583-1.069 0.365-1.969 0.911-2.698 1.641-0.705 0.729-1.24 1.616-1.604 2.661-0.34 1.045-0.535 2.236-0.583 3.573l-2.115-0.656c0-2.552 0.255-4.898 0.766-7.036 0.51-2.163 1.252-4.047 2.224-5.651 0.997-1.604 2.212-2.844 3.646-3.719s3.075-1.313 4.922-1.313c0.583 0 1.179 0.049 1.786 0.146 0.608 0.073 1.106 0.182 1.495 0.328zM41.995-17.083l11.083 24.208 11.083-24.208h11.922l-17.464 33.76v19.323h-11.083v-19.323l-17.5-33.76h11.958zM77.687 16.677v-0.766c0-2.892 0.413-5.554 1.24-7.984 0.826-2.455 2.029-4.582 3.609-6.38s3.524-3.196 5.833-4.193c2.309-1.021 4.958-1.531 7.948-1.531s5.651 0.51 7.984 1.531c2.333 0.997 4.29 2.394 5.87 4.193 1.604 1.799 2.819 3.925 3.646 6.38 0.826 2.431 1.24 5.092 1.24 7.984v0.766c0 2.868-0.413 5.529-1.24 7.984-0.826 2.431-2.042 4.557-3.646 6.38-1.58 1.799-3.524 3.196-5.833 4.193s-4.958 1.495-7.948 1.495-5.651-0.498-7.984-1.495c-2.309-0.997-4.266-2.394-5.87-4.193-1.58-1.823-2.783-3.95-3.609-6.38-0.826-2.455-1.24-5.116-1.24-7.984zM88.187 15.911v0.766c0 1.653 0.146 3.196 0.437 4.63s0.753 2.698 1.385 3.792c0.656 1.069 1.507 1.908 2.552 2.516s2.321 0.911 3.828 0.911c1.458 0 2.71-0.304 3.755-0.911s1.884-1.446 2.516-2.516c0.632-1.094 1.094-2.358 1.385-3.792 0.316-1.434 0.474-2.977 0.474-4.63v-0.766c0-1.604-0.158-3.111-0.474-4.521-0.292-1.434-0.766-2.698-1.422-3.792-0.632-1.118-1.471-1.993-2.516-2.625s-2.309-0.948-3.792-0.948c-1.483 0-2.747 0.316-3.792 0.948-1.021 0.632-1.859 1.507-2.516 2.625-0.632 1.094-1.094 2.358-1.385 3.792-0.292 1.41-0.437 2.917-0.437 4.521zM146.336 26.557v-30.005h10.5v39.448h-9.88l-0.62-9.443zM147.503 18.464l3.099-0.073c0 2.625-0.303 5.068-0.911 7.328-0.608 2.236-1.52 4.181-2.735 5.833-1.215 1.628-2.747 2.904-4.593 3.828-1.848 0.899-4.023 1.349-6.527 1.349-1.92 0-3.694-0.267-5.323-0.802-1.604-0.559-2.99-1.422-4.156-2.589-1.142-1.191-2.042-2.71-2.698-4.557-0.632-1.871-0.948-4.12-0.948-6.745v-25.484h10.5v25.557c0 1.167 0.134 2.151 0.401 2.953 0.292 0.802 0.693 1.458 1.204 1.969 0.509 0.51 1.105 0.875 1.785 1.094 0.705 0.219 1.483 0.328 2.333 0.328 2.164 0 3.865-0.437 5.105-1.312 1.263-0.875 2.151-2.066 2.661-3.573 0.535-1.531 0.801-3.233 0.801-5.104zM176.851 5.156v30.844h-10.5v-39.448h9.88l0.62 8.604zM188.736-3.703l-0.183 9.734c-0.511-0.073-1.131-0.134-1.859-0.182-0.705-0.073-1.349-0.109-1.933-0.109-1.483 0-2.771 0.194-3.864 0.583-1.069 0.365-1.969 0.911-2.697 1.641-0.705 0.729-1.24 1.616-1.605 2.661-0.34 1.045-0.535 2.236-0.583 3.573l-2.115-0.656c0-2.552 0.255-4.898 0.765-7.036 0.511-2.163 1.252-4.047 2.224-5.651 0.997-1.604 2.212-2.844 3.647-3.719 1.433-0.875 3.075-1.313 4.921-1.313 0.583 0 1.179 0.049 1.787 0.146 0.608 0.073 1.105 0.182 1.495 0.328zM236.712 12.703h-13.636l-0.072-7.51h11.448c2.017 0 3.669-0.255 4.957-0.766 1.289-0.535 2.249-1.3 2.881-2.297 0.656-1.021 0.984-2.26 0.984-3.719 0-1.653-0.316-2.99-0.948-4.010-0.608-1.021-1.568-1.762-2.88-2.224-1.288-0.462-2.953-0.693-4.995-0.693h-7.584v44.516h-10.937v-53.083h18.521c3.087 0 5.845 0.292 8.276 0.875 2.455 0.583 4.533 1.47 6.235 2.661s3.001 2.698 3.9 4.521c0.9 1.799 1.349 3.938 1.349 6.417 0 2.188-0.499 4.205-1.495 6.052-0.972 1.847-2.516 3.354-4.631 4.521-2.089 1.167-4.824 1.811-8.203 1.932l-3.172 2.807zM236.239 36h-16.152l4.267-8.531h11.885c1.92 0 3.487-0.304 4.703-0.911 1.215-0.632 2.115-1.483 2.697-2.552 0.584-1.069 0.876-2.297 0.876-3.682 0-1.556-0.268-2.905-0.803-4.047-0.511-1.142-1.337-2.017-2.479-2.625-1.143-0.632-2.649-0.948-4.521-0.948h-10.536l0.072-7.51h13.125l2.516 2.953c3.232-0.049 5.833 0.523 7.801 1.714 1.993 1.167 3.44 2.686 4.339 4.557 0.924 1.871 1.385 3.877 1.385 6.016 0 3.403-0.741 6.271-2.224 8.604-1.483 2.309-3.657 4.047-6.525 5.214-2.844 1.167-6.32 1.75-10.427 1.75zM287.789 26.557v-30.005h10.5v39.448h-9.881l-0.619-9.443zM288.956 18.464l3.099-0.073c0 2.625-0.304 5.068-0.912 7.328-0.608 2.236-1.519 4.181-2.735 5.833-1.215 1.628-2.745 2.904-4.593 3.828-1.847 0.899-4.023 1.349-6.525 1.349-1.921 0-3.695-0.267-5.324-0.802-1.604-0.559-2.989-1.422-4.156-2.589-1.143-1.191-2.041-2.71-2.697-4.557-0.632-1.871-0.948-4.12-0.948-6.745v-25.484h10.5v25.557c0 1.167 0.133 2.151 0.401 2.953 0.291 0.802 0.692 1.458 1.203 1.969s1.105 0.875 1.787 1.094c0.704 0.219 1.483 0.328 2.333 0.328 2.163 0 3.864-0.437 5.104-1.312 1.264-0.875 2.151-2.066 2.661-3.573 0.535-1.531 0.803-3.233 0.803-5.104zM329.131 25.099c0-0.753-0.219-1.434-0.656-2.042s-1.252-1.167-2.443-1.677c-1.167-0.535-2.856-1.021-5.068-1.458-1.993-0.437-3.852-0.984-5.577-1.641-1.701-0.681-3.184-1.495-4.448-2.443-1.24-0.948-2.212-2.066-2.917-3.354-0.704-1.313-1.057-2.807-1.057-4.484 0-1.653 0.353-3.208 1.057-4.667 0.729-1.458 1.763-2.747 3.099-3.865 1.361-1.142 3.015-2.030 4.959-2.661 1.969-0.656 4.181-0.984 6.636-0.984 3.427 0 6.368 0.547 8.823 1.641 2.479 1.094 4.375 2.601 5.688 4.521 1.336 1.896 2.004 4.059 2.004 6.49h-10.5c0-1.021-0.219-1.932-0.656-2.734-0.413-0.826-1.069-1.47-1.968-1.932-0.876-0.486-2.017-0.729-3.428-0.729-1.167 0-2.175 0.207-3.025 0.62-0.851 0.389-1.507 0.924-1.969 1.604-0.437 0.656-0.656 1.385-0.656 2.188 0 0.608 0.121 1.155 0.365 1.641 0.267 0.462 0.692 0.887 1.276 1.276 0.583 0.389 1.336 0.753 2.26 1.094 0.948 0.316 2.115 0.608 3.5 0.875 2.844 0.583 5.384 1.349 7.62 2.297 2.236 0.924 4.011 2.187 5.323 3.792 1.312 1.58 1.969 3.658 1.969 6.234 0 1.75-0.389 3.354-1.167 4.813-0.779 1.458-1.896 2.734-3.355 3.828-1.459 1.069-3.208 1.908-5.251 2.516-2.017 0.583-4.289 0.875-6.817 0.875-3.669 0-6.781-0.656-9.333-1.969-2.528-1.313-4.448-2.977-5.76-4.995-1.288-2.042-1.932-4.132-1.932-6.271h9.952c0.049 1.434 0.413 2.589 1.095 3.464 0.704 0.875 1.592 1.507 2.661 1.896 1.093 0.389 2.272 0.583 3.536 0.583 1.361 0 2.492-0.182 3.391-0.547 0.9-0.389 1.58-0.899 2.041-1.531 0.487-0.656 0.729-1.41 0.729-2.26zM358.733-3.448v39.448h-10.536v-39.448h10.536zM347.541-13.729c0-1.531 0.535-2.795 1.604-3.792s2.503-1.495 4.301-1.495c1.775 0 3.197 0.498 4.267 1.495 1.093 0.997 1.64 2.26 1.64 3.792s-0.547 2.795-1.64 3.792c-1.069 0.997-2.492 1.495-4.267 1.495-1.799 0-3.232-0.498-4.301-1.495s-1.604-2.26-1.604-3.792zM379.185 4.974v31.026h-10.5v-39.448h9.844l0.656 8.422zM377.655 14.891h-2.844c0-2.917 0.376-5.542 1.129-7.875 0.755-2.358 1.812-4.363 3.172-6.016 1.361-1.677 2.977-2.953 4.849-3.828 1.896-0.899 4.011-1.349 6.344-1.349 1.847 0 3.536 0.267 5.068 0.802 1.531 0.535 2.843 1.385 3.937 2.552 1.117 1.167 1.968 2.71 2.552 4.63 0.608 1.92 0.911 4.266 0.911 7.036v25.156h-10.572v-25.193c0-1.75-0.244-3.111-0.729-4.083-0.487-0.972-1.203-1.653-2.151-2.042-0.924-0.413-2.067-0.62-3.428-0.62-1.409 0-2.637 0.279-3.681 0.839-1.021 0.559-1.872 1.337-2.552 2.333-0.657 0.972-1.155 2.115-1.496 3.427-0.34 1.313-0.509 2.722-0.509 4.229zM430.408 36.729c-3.063 0-5.809-0.486-8.24-1.458-2.431-0.997-4.496-2.37-6.197-4.12-1.677-1.75-2.965-3.78-3.865-6.089-0.899-2.333-1.348-4.813-1.348-7.437v-1.458c0-2.99 0.425-5.724 1.276-8.203s2.065-4.63 3.645-6.453c1.604-1.823 3.548-3.22 5.833-4.193 2.285-0.997 4.861-1.495 7.729-1.495 2.795 0 5.275 0.462 7.437 1.385s3.975 2.236 5.432 3.938c1.483 1.701 2.601 3.743 3.355 6.125 0.753 2.358 1.131 4.983 1.131 7.875v4.375h-31.355v-7h21.036v-0.802c0-1.458-0.267-2.759-0.801-3.901-0.511-1.167-1.288-2.090-2.333-2.771s-2.383-1.021-4.011-1.021c-1.385 0-2.576 0.304-3.573 0.911-0.996 0.608-1.811 1.458-2.443 2.552-0.608 1.094-1.069 2.382-1.385 3.865-0.292 1.458-0.437 3.063-0.437 4.812v1.458c0 1.58 0.219 3.038 0.656 4.375 0.463 1.337 1.107 2.491 1.932 3.464 0.851 0.972 1.872 1.726 3.063 2.26 1.216 0.535 2.589 0.802 4.12 0.802 1.896 0 3.659-0.365 5.287-1.094 1.653-0.753 3.075-1.884 4.265-3.391l5.104 5.542c-0.827 1.191-1.956 2.333-3.391 3.427-1.409 1.094-3.111 1.993-5.104 2.698-1.993 0.681-4.265 1.021-6.817 1.021zM475.396 25.099c0-0.753-0.219-1.434-0.656-2.042s-1.252-1.167-2.443-1.677c-1.167-0.535-2.856-1.021-5.068-1.458-1.993-0.437-3.852-0.984-5.579-1.641-1.701-0.681-3.184-1.495-4.448-2.443-1.239-0.948-2.211-2.066-2.916-3.354-0.705-1.313-1.057-2.807-1.057-4.484 0-1.653 0.352-3.208 1.057-4.667 0.729-1.458 1.763-2.747 3.099-3.865 1.361-1.142 3.015-2.030 4.959-2.661 1.968-0.656 4.18-0.984 6.635-0.984 3.428 0 6.369 0.547 8.824 1.641 2.479 1.094 4.375 2.601 5.687 4.521 1.337 1.896 2.005 4.059 2.005 6.49h-10.5c0-1.021-0.219-1.932-0.656-2.734-0.413-0.826-1.069-1.47-1.969-1.932-0.875-0.486-2.017-0.729-3.427-0.729-1.167 0-2.175 0.207-3.025 0.62-0.851 0.389-1.508 0.924-1.969 1.604-0.437 0.656-0.656 1.385-0.656 2.188 0 0.608 0.121 1.155 0.364 1.641 0.268 0.462 0.693 0.887 1.276 1.276 0.584 0.389 1.337 0.753 2.261 1.094 0.948 0.316 2.115 0.608 3.5 0.875 2.843 0.583 5.383 1.349 7.619 2.297 2.237 0.924 4.011 2.187 5.324 3.792 1.312 1.58 1.968 3.658 1.968 6.234 0 1.75-0.388 3.354-1.167 4.813-0.777 1.458-1.896 2.734-3.353 3.828-1.459 1.069-3.209 1.908-5.251 2.516-2.017 0.583-4.289 0.875-6.817 0.875-3.671 0-6.781-0.656-9.333-1.969-2.528-1.313-4.448-2.977-5.76-4.995-1.289-2.042-1.933-4.132-1.933-6.271h9.953c0.049 1.434 0.413 2.589 1.093 3.464 0.705 0.875 1.592 1.507 2.663 1.896 1.093 0.389 2.272 0.583 3.536 0.583 1.361 0 2.491-0.182 3.391-0.547 0.899-0.389 1.58-0.899 2.041-1.531 0.487-0.656 0.729-1.41 0.729-2.26zM515.244 25.099c0-0.753-0.219-1.434-0.657-2.042-0.437-0.608-1.251-1.167-2.443-1.677-1.167-0.535-2.855-1.021-5.067-1.458-1.993-0.437-3.853-0.984-5.579-1.641-1.701-0.681-3.184-1.495-4.448-2.443-1.24-0.948-2.212-2.066-2.916-3.354-0.705-1.313-1.057-2.807-1.057-4.484 0-1.653 0.352-3.208 1.057-4.667 0.729-1.458 1.761-2.747 3.099-3.865 1.361-1.142 3.013-2.030 4.959-2.661 1.968-0.656 4.18-0.984 6.635-0.984 3.427 0 6.368 0.547 8.823 1.641 2.48 1.094 4.376 2.601 5.688 4.521 1.337 1.896 2.005 4.059 2.005 6.49h-10.5c0-1.021-0.219-1.932-0.656-2.734-0.413-0.826-1.069-1.47-1.969-1.932-0.875-0.486-2.017-0.729-3.427-0.729-1.167 0-2.176 0.207-3.027 0.62-0.851 0.389-1.507 0.924-1.968 1.604-0.437 0.656-0.656 1.385-0.656 2.188 0 0.608 0.121 1.155 0.364 1.641 0.268 0.462 0.693 0.887 1.276 1.276 0.584 0.389 1.337 0.753 2.26 1.094 0.948 0.316 2.115 0.608 3.5 0.875 2.844 0.583 5.384 1.349 7.62 2.297 2.236 0.924 4.011 2.187 5.323 3.792 1.313 1.58 1.969 3.658 1.969 6.234 0 1.75-0.389 3.354-1.167 4.813s-1.896 2.734-3.355 3.828c-1.457 1.069-3.208 1.908-5.249 2.516-2.017 0.583-4.291 0.875-6.817 0.875-3.671 0-6.781-0.656-9.333-1.969-2.528-1.313-4.448-2.977-5.761-4.995-1.288-2.042-1.932-4.132-1.932-6.271h9.953c0.048 1.434 0.413 2.589 1.093 3.464 0.705 0.875 1.592 1.507 2.661 1.896 1.095 0.389 2.273 0.583 3.537 0.583 1.36 0 2.491-0.182 3.391-0.547 0.899-0.389 1.579-0.899 2.041-1.531 0.485-0.656 0.729-1.41 0.729-2.26z"></path>
<path fill="#2e2f42" style="fill: var(--color4, #2e2f42)" opacity="0.4" d="M-741.333-466.667h1920v901.333h-1920v-901.333z"></path>
<path fill="#fcfcfc" style="fill: var(--color5, #fcfcfc)" d="M-48-360h533.333c2.946 0 5.333 2.388 5.333 5.333v768c0 2.946-2.388 5.333-5.333 5.333h-533.333c-2.946 0-5.333-2.388-5.333-5.333v-768c0-2.946 2.388-5.333 5.333-5.333z"></path>
<path fill="none" stroke="#2e2f42" style="stroke: var(--color4, #2e2f42)" stroke-linejoin="miter" stroke-linecap="butt" stroke-miterlimit="4" stroke-width="1.3333" d="M-16-10h469.333c2.577 0 4.667 2.089 4.667 4.667v42.667c0 2.577-2.089 4.667-4.667 4.667h-469.333c-2.577 0-4.667-2.089-4.667-4.667v-42.667c0-2.577 2.089-4.667 4.667-4.667z"></path>
<path fill="#2e2f42" style="fill: var(--color4, #2e2f42)" d="M20 8h-16c-1.1 0-1.99 0.9-1.99 2l-0.010 12c0 1.1 0.9 2 2 2h16c1.1 0 2-0.9 2-2v-12c0-1.1-0.9-2-2-2zM19.6 12.25l-7.070 4.42c-0.32 0.2-0.74 0.2-1.060 0l-7.070-4.42c-0.25-0.16-0.4-0.43-0.4-0.72 0-0.67 0.73-1.070 1.3-0.72l6.7 4.19 6.7-4.19c0.57-0.35 1.3 0.050 1.3 0.72 0 0.29-0.15 0.56-0.4 0.72z"></path>
</symbol>
  </defs>
</svg>
